<svg xmlns="http://www.w3.org/2000/svg" width="512" height="512" viewBox="0 0 512 512"><path fill="#FAC231" d="M256.017 60.333C31.332 60.333 26 312.23 26 362.113c0 49.815 102.963 90.23 230.017 90.23 127.053 0 229.983-40.415 229.983-90.23 0-49.884-5.3-301.78-229.983-301.78z"/><path fill="#302F2F" d="M120.8 161.7c.47-1.125 12.372-27.61 40.597-28.19h.183c28.333-.508 41.14 25.65 41.722 26.812 2.394 5.006.36 11.064-4.607 13.495-1.308.69-2.76 1.017-4.137 1.053-3.7.072-7.4-1.995-9.143-5.658-.398-.727-8.018-15.71-23.475-15.384h-.072c-15.492.326-22.603 15.564-22.856 16.18-2.322 5.08-8.236 7.33-13.24 5.044-4.935-2.358-7.222-8.236-4.972-13.352z"/><path fill="#ED6D31" d="M289.215 309.87c-32.184 20.604-79.528 19.77-114.14 7.8-18.43-6.604-44.952-24.454-56.197-52.57-4.897-12.19-5.66-32.616-.834-44.407 3.77-9.397 12.588-13.17 21.48-13.823 13.638-.98 30.255 11.5 43.86 16.144 25.65 8.817 50.14 8.6 79.96 5.008 19.158-3.266 38.677-9.615 55.188.035 9.828 5.914 11.86 18.612 10.52 29.497-2.033 16.29-15.206 36.534-39.837 52.315z"/><path fill="#302F2F" d="M335.688 205.745c-.364.036-.726.036-1.123.073-4.973.107-9.396-3.628-10.086-8.852-.11-.727-3.087-20.173-20.392-25.614-17.668-5.48-31.31 9.396-31.455 9.542-3.737 4.17-10.047 4.426-14.114.688-4.026-3.773-4.353-10.195-.618-14.294.942-1.052 22.424-24.562 52.1-15.31 29.716 9.325 34.142 41.07 34.32 42.448.688 5.478-3.19 10.593-8.634 11.32z"/><path fill="#fff" d="M430.017 270.18c-1.597 6.855-4.97 16.397-12.155 19.734-7.107 3.302-15.164 1.383-20.932-3.483-7.146-5.947-8.78-14.22-9.396-22.964-.437-5.15-.326-10.193.035-14.257.978-10.56-1.163-20.935-.433-31.238.216-3.012 1.448-6.822 4.967-5.95 2.905.69 6.784 3.663 9.215 5.332 16.18 11.392 33.668 31.78 28.697 52.826z"/></svg>